<svg id="Layer_35" enable-background="new 0 0 64 64" height="512" viewBox="0 0 64 64" width="512" xmlns="http://www.w3.org/2000/svg"><path d="m49 16c0 4.01-1.7 7.62-4.4 10.17-1.47.35-2.72 1.24-3.55 2.44-1.83.88-3.88 1.39-6.05 1.39-3.93 0-7.47-1.62-10.01-4.22-.07-2.46-1.41-4.6-3.4-5.78v-.01c-.38-1.27-.59-2.6-.59-3.99 0-7.73 6.27-14 14-14s14 6.27 14 14z" fill="#ffeaa7"/><path d="m60.52 39.41c1.43.84 1.9 2.68 1.07 4.11l-7.39 12.56c-2.15 3.65-6.11 5.92-10.35 5.92h-38.85c-1.65 0-3-1.35-3-3s1.35-3 3-3h4 22 4 8.85.1c2.08-.04 4.02-1.16 5.07-2.96l3.86-6.56 3.53-6c.54-.91 1.53-1.48 2.59-1.48.53 0 1.06.14 1.52.41z" fill="#dfb28b"/><path d="m6 53v-8c0-3.32 1.34-6.32 3.51-8.49s5.17-3.51 8.49-3.51c6.63 0 12 5.37 12 12v3l-3.62-2.42c-1.55-1.03-3.37-1.58-5.24-1.58-2.04 0-4.02.66-5.66 1.89l-5.48 4.11h-1c-.83 0-1.58.34-2.12.88s-.88 1.29-.88 2.12z" fill="#fcd770"/><path d="m34 50h.25l.25 1.05c-1.14.23-2 1.24-2 2.45 0 .69.28 1.32.73 1.77s1.08.73 1.77.73h-4-22c-1.66 0-3-1.34-3-3 0-.83.34-1.58.88-2.12s1.29-.88 2.12-.88h1 23z" fill="#838f9b"/><path d="m30 48 3 2h-23l5.48-4.11c1.64-1.23 3.62-1.89 5.66-1.89 1.87 0 3.69.55 5.24 1.58z" fill="#838f9b"/><path d="m34.25 50 5.92-8.88c1.3-1.95 3.48-3.12 5.83-3.12 1.38 0 2.72.41 3.88 1.17 1.55 1.04 2.61 2.62 2.98 4.46.18.86.18 1.74.04 2.58l-.04.26.02.01-3.86 6.56c-1.05 1.8-2.99 2.92-5.07 2.96-.03 0-.07 0-.1 0h-8.85c-.69 0-1.32-.28-1.77-.73s-.73-1.08-.73-1.77c0-1.21.86-2.22 2-2.45z" fill="#b4dd7f"/><path d="m24.99 25.78c.01.07.01.15.01.22 0 3.87-3.13 7-7 7s-7-3.13-7-7 3.13-7 7-7c1.32 0 2.55.36 3.59.99v.01c1.99 1.18 3.33 3.32 3.4 5.78z" fill="#f0d0b4"/><path d="m46 26c3.31 0 6 2.69 6 6s-2.69 6-6 6-6-2.69-6-6c0-1.26.39-2.43 1.05-3.39.83-1.2 2.08-2.09 3.55-2.44.45-.11.92-.17 1.4-.17z" fill="#f0d0b4"/><path d="m45 13.66c0 1.5-.6 2.94-1.66 4l-.44.44c-1.89 1.89-3.18 4.3-3.7 6.92-.12.57-.62.98-1.2.98s-1.08-.41-1.2-.98l-.6-3.04c-.12-.57-.62-.98-1.2-.98s-1.08.41-1.2.98l-.6 3.04c-.12.57-.62.98-1.2.98s-1.08-.41-1.2-.98c-.52-2.62-1.81-5.03-3.7-6.92l-.44-.44c-1.06-1.06-1.66-2.5-1.66-4 0-3.13 2.53-5.66 5.66-5.66h.34l.59.59c.9.9 2.13 1.41 3.41 1.41s2.51-.51 3.41-1.41l.59-.59h.34c1.56 0 2.98.63 4 1.66 1.03 1.02 1.66 2.44 1.66 4z" fill="#e6e9ed"/><path d="m26.395 18.809c1.756 1.756 2.941 3.972 3.429 6.408.206 1.033 1.122 1.783 2.176 1.783s1.97-.75 2.177-1.785l.607-3.038c.041-.205.391-.204.432-.001l.607 3.04c.207 1.034 1.123 1.784 2.177 1.784s1.97-.75 2.177-1.784c.487-2.436 1.673-4.651 3.429-6.408l.444-.444c1.258-1.257 1.95-2.929 1.95-4.708 0-3.67-2.986-6.656-6.657-6.656h-.757l-.879.879c-.713.712-1.699 1.121-2.707 1.121s-1.994-.409-2.707-1.121l-.879-.879h-.757c-3.671 0-6.657 2.986-6.657 6.657 0 1.779.692 3.451 1.95 4.707zm4.191-9.809.293.292c1.085 1.086 2.587 1.708 4.121 1.708s3.036-.622 4.121-1.707l.293-.293c2.535.039 4.586 2.113 4.586 4.657 0 1.245-.484 2.414-1.364 3.293l-.444.444c-2.036 2.037-3.411 4.605-3.976 7.428-.041.205-.391.204-.432.001l-.607-3.04c-.207-1.033-1.123-1.783-2.177-1.783s-1.97.75-2.177 1.785l-.607 3.038c-.041.205-.391.205-.432 0-.564-2.823-1.939-5.392-3.976-7.428l-.444-.446c-.88-.879-1.364-2.048-1.364-3.292 0-2.544 2.051-4.618 4.586-4.657z"/><path d="m61.027 38.552c-.614-.361-1.315-.552-2.026-.552-1.41 0-2.731.755-3.449 1.972l-1.807 3.072c-.486-1.93-1.645-3.592-3.313-4.703-.234-.156-.482-.283-.729-.412 1.976-1.238 3.297-3.429 3.297-5.929 0-3.548-2.656-6.481-6.083-6.933 1.992-2.596 3.083-5.735 3.083-9.067 0-8.271-6.729-15-15-15s-15 6.729-15 15c0 .773.066 1.545.186 2.311-.696-.198-1.427-.311-2.186-.311-4.411 0-8 3.589-8 8 0 2.833 1.484 5.32 3.711 6.742-5.064 1.778-8.711 6.594-8.711 12.258v8c0 .732.212 1.409.556 2h-.556c-2.206 0-4 1.794-4 4s1.794 4 4 4h38.853c4.587 0 8.88-2.456 11.206-6.409l7.391-12.566c1.115-1.902.477-4.358-1.423-5.473zm-9.146 5.272c.148.737.158 1.482.024 2.254l-.016.121-3.727 6.336c-.893 1.521-2.546 2.465-4.309 2.465h-8.853c-.827 0-1.5-.673-1.5-1.5s.673-1.5 1.5-1.5h7.585c1.222 0 2.371-.651 3.001-1.699l2.271-3.786-1.715-1.029-2.271 3.786c-.269.449-.763.728-1.286.728h-7.131l5.552-8.329c1.111-1.672 2.977-2.671 4.991-2.671 1.187 0 2.337.348 3.326 1.007 1.334.888 2.243 2.243 2.558 3.817zm-26.095-16.013c2.625 2.059 5.826 3.189 9.214 3.189 1.434 0 2.836-.227 4.2-.63-.126.524-.2 1.068-.2 1.63 0 2.491 1.312 4.677 3.278 5.918-1.167.613-2.183 1.511-2.937 2.645l-5.624 8.437h-.414l-2.303-1.535v-2.465c0-5.664-3.647-10.48-8.711-12.258 1.737-1.109 3.016-2.866 3.497-4.931zm3.911 21.189h-16.698l3.085-2.313c1.451-1.088 3.248-1.687 5.061-1.687 1.67 0 3.287.49 4.677 1.416zm21.303-17c0 2.757-2.243 5-5 5s-5-2.243-5-5 2.243-5 5-5 5 2.243 5 5zm-29-16c0-7.168 5.832-13 13-13s13 5.832 13 13c0 3.523-1.397 6.804-3.923 9.275-1.477.423-2.752 1.32-3.656 2.515-1.724.797-3.545 1.21-5.421 1.21-3.404 0-6.593-1.311-9.034-3.679-.21-2.481-1.552-4.644-3.512-5.963-.296-1.102-.454-2.229-.454-3.358zm-10 10c0-3.309 2.691-6 6-6s6 2.691 6 6-2.691 6-6 6-6-2.691-6-6zm6 8c6.065 0 11 4.935 11 11v1.132l-2.069-1.38c-1.719-1.146-3.72-1.752-5.786-1.752-2.242 0-4.466.741-6.26 2.086l-5.218 3.914h-.667c-.732 0-1.409.212-2 .556v-4.556c0-6.065 4.935-11 11-11zm-11 19c0-1.103.897-2 2-2h23.558c-.651.636-1.058 1.52-1.058 2.5 0 .539.133 1.044.351 1.5h-22.856c-1.1-.003-1.995-.899-1.995-2zm53.725-9.988-7.391 12.565c-1.968 3.345-5.601 5.423-9.481 5.423h-38.853c-1.103 0-2-.897-2-2s.897-2 2-2h3.995.005 22 4 8.853.1v-.007c2.432-.035 4.699-1.345 5.935-3.444l7.389-12.562c.538-.916 1.817-1.25 2.739-.71.948.557 1.266 1.785.709 2.735z"/></svg>