<svg id="Layer_35" enable-background="new 0 0 64 64" height="512" viewBox="0 0 64 64" width="512" xmlns="http://www.w3.org/2000/svg"><path d="m19.36 35.7 5.01-2.14 4.43 6.64 3.2 4.8-2 3v14h-23v-11.77c0-5.6 3.34-10.66 8.49-12.87z" fill="#e6e9ed"/><path d="m44.64 35.7 3.87 1.66c5.15 2.21 8.49 7.27 8.49 12.87v11.77h-27v-14l2-3 3.2-4.8 4.43-6.64z" fill="#e6e9ed"/><g fill="#b4dd7f"><path d="m35.2 40.2-3.2 4.8-3.2-4.8 3.2-3.2z"/><path d="m32 37-3.2 3.2-4.43-6.64 1.81-.78c.36-.16.69-.38.95-.65z"/><path d="m37.82 32.78 1.81.78-4.43 6.64-3.2-3.2 4.87-4.87c.26.27.59.49.95.65z"/></g><circle cx="15" cy="54" fill="#838f9b" r="2"/><circle cx="23" cy="54" fill="#838f9b" r="2"/><path d="m45 44c3.31 0 6 2.69 6 6s-2.69 6-6 6-6-2.69-6-6 2.69-6 6-6z" fill="#fcd770"/><circle cx="45" cy="50" fill="#ffeaa7" r="2"/><path d="m36.87 32.13-4.87 4.87-4.87-4.87c.55-.55.87-1.31.87-2.11v-.6c1.27.38 2.61.58 4 .58s2.73-.2 4-.58v.6c0 .8.32 1.56.87 2.11z" fill="#f0d0b4"/><path d="m45 20h-6c-1.86 0-3.43-1.27-3.87-3-.09-.32-.13-.65-.13-1 0-.55.22-1.05.59-1.41.36-.37.86-.59 1.41-.59h-5-5c1.1 0 2 .9 2 2 0 .35-.04.68-.13 1-.18.7-.55 1.33-1.04 1.83-.73.72-1.73 1.17-2.83 1.17h-6c-.15 0-.29-.02-.43-.05 1 3.41 3.26 6.28 6.25 8.07.99.59 2.05 1.06 3.18 1.4 1.27.38 2.61.58 4 .58s2.73-.2 4-.58c1.13-.34 2.19-.81 3.18-1.4 2.99-1.79 5.25-4.66 6.25-8.07-.14.03-.28.05-.43.05z" fill="#f0d0b4"/><path d="m44.65 10h-9.83c-.4-1.17-1.51-2-2.82-2s-2.42.83-2.82 2h-9.83c2.24-4.73 7.07-8 12.65-8s10.41 3.27 12.65 8z" fill="#656d78"/><path d="m29 11c0 1.66 1.34 3 3 3h-5-8c-1.1 0-2-.9-2-2 0-.55.22-1.05.59-1.41.36-.37.86-.59 1.41-.59h.35 9.83c-.12.31-.18.65-.18 1z" fill="#ccd1d9"/><path d="m37 14h-5c1.66 0 3-1.34 3-3 0-.35-.06-.69-.18-1h9.83.35c1.1 0 2 .9 2 2 0 .55-.22 1.05-.59 1.41-.36.37-.86.59-1.41.59z" fill="#ccd1d9"/><path d="m34.82 10c.12.31.18.65.18 1 0 1.66-1.34 3-3 3s-3-1.34-3-3c0-.35.06-.69.18-1 .4-1.17 1.51-2 2.82-2s2.42.83 2.82 2z" fill="#e6e9ed"/><path d="m29 16c0 .35-.04.68-.13 1-.18.7-.55 1.33-1.04 1.83-.73.72-1.73 1.17-2.83 1.17h-6c-.15 0-.29-.02-.43-.05-.9-.2-1.57-1-1.57-1.95v-2c0-1.1.9-2 2-2h8c1.1 0 2 .9 2 2z" fill="#69d6f4"/><path d="m47 16v2c0 .95-.67 1.75-1.57 1.95-.14.03-.28.05-.43.05h-6c-1.86 0-3.43-1.27-3.87-3-.09-.32-.13-.65-.13-1 0-.55.22-1.05.59-1.41.36-.37.86-.59 1.41-.59h8c1.1 0 2 .9 2 2z" fill="#69d6f4"/><path d="m48.908 36.444-3.435-1.472c-.762-2.711-2.344-5.128-4.573-6.925 2.44-1.801 4.33-4.333 5.323-7.315 1.045-.469 1.777-1.515 1.777-2.732v-2c0-.771-.301-1.468-.78-2 .48-.532.78-1.229.78-2 0-1.561-1.202-2.832-2.727-2.972-2.578-4.893-7.717-8.028-13.273-8.028s-10.695 3.135-13.273 8.028c-1.525.14-2.727 1.411-2.727 2.972 0 .771.301 1.468.78 2-.48.532-.78 1.229-.78 2v2c0 1.217.732 2.263 1.776 2.733.993 2.982 2.883 5.514 5.323 7.315-2.229 1.797-3.811 4.214-4.572 6.925l-3.435 1.472c-5.524 2.367-9.092 7.779-9.092 13.786v12.769h52v-12.769c0-6.007-3.568-11.419-9.092-13.787zm-5.955-2.552-4.741-2.032c-.706-.302-1.16-.981-1.198-1.742.717-.257 1.412-.564 2.078-.924 1.708 1.22 3.025 2.841 3.861 4.698zm-10.953 9.305-1.913-2.87 1.913-1.913 1.913 1.913zm0-12.197c1.041 0 2.062-.122 3.056-.331.08.488.253.947.497 1.365l-3.553 3.552-3.553-3.553c.244-.418.417-.877.497-1.365.994.21 2.015.332 3.056.332zm-5.425 2.699c.163-.07.317-.153.467-.242l3.544 3.543-1.631 1.631-3.086-4.629zm8.47 4.932-1.631-1.631 3.544-3.544c.15.089.304.172.467.242l.706.303zm-1.045-22.631h-4c0-.352-.072-.686-.184-1h4.369c-.113.314-.185.648-.185 1zm-6 0c0 1.654-1.346 3-3 3h-6c-.552 0-1-.449-1-1v-2c0-.551.448-1 1-1h8c.552 0 1 .449 1 1zm2-5c0-1.103.897-2 2-2s2 .897 2 2-.897 2-2 2-2-.897-2-2zm7 4h8c.552 0 1 .449 1 1v2c0 .551-.448 1-1 1h-6c-1.654 0-3-1.346-3-3 0-.551.448-1 1-1zm9-3c0 .551-.448 1-1 1h-8-1.556c.344-.591.556-1.268.556-2h9c.552 0 1 .449 1 1zm-14-9c4.443 0 8.579 2.312 10.948 6h-7.505c-.693-1.19-1.969-2-3.443-2s-2.75.81-3.444 2h-7.505c2.37-3.688 6.506-6 10.949-6zm-13 8h9c0 .732.212 1.409.556 2h-1.556-8c-.552 0-1-.449-1-1s.448-1 1-1zm1.007 10h4.993c2.045 0 3.802-1.237 4.576-3h4.848c.774 1.763 2.531 3 4.576 3h4.993c-1.998 4.77-6.738 8-11.993 8s-9.996-3.23-11.993-8zm4.9 8.194c.666.36 1.361.667 2.078.924-.037.761-.492 1.44-1.198 1.742l-4.741 2.032c.837-1.857 2.154-3.478 3.861-4.698zm-16.907 21.037c0-5.207 3.093-9.897 7.879-11.949l2.206-.945c-.044.448-.085.896-.085 1.352v4.39c-3.386.488-6 3.401-6 6.92v4c0 1.654 1.346 3 3 3s3-1.346 3-3-1.346-3-3-3c-.352 0-.686.072-1 .184v-1.183c0-2.757 2.243-5 5-5s5 2.243 5 5v1.184c-.314-.112-.648-.184-1-.184-1.654 0-3 1.346-3 3s1.346 3 3 3 3-1.346 3-3v-4c0-3.519-2.614-6.432-6-6.92v-4.39c0-.776.098-1.534.245-2.278l3.755-1.61 6.798 10.198-1.798 2.697v13.303h-21zm6 3.769c0-.551.448-1 1-1s1 .449 1 1-.448 1-1 1-1-.449-1-1zm10 0c0 .551-.448 1-1 1s-1-.449-1-1 .448-1 1-1 1 .449 1 1zm32 7h-25v-12.697l9.001-13.501 3.755 1.609c.146.744.244 1.502.244 2.278v4.39c-3.386.488-6 3.401-6 6.92 0 3.86 3.141 7 7 7s7-3.14 7-7c0-3.519-2.614-6.432-6-6.92v-4.39c0-.456-.041-.905-.085-1.353l2.206.945c4.786 2.053 7.879 6.743 7.879 11.95zm-11-16c2.757 0 5 2.243 5 5s-2.243 5-5 5-5-2.243-5-5 2.243-5 5-5z"/><path d="m45 53c1.654 0 3-1.346 3-3s-1.346-3-3-3-3 1.346-3 3 1.346 3 3 3zm0-4c.552 0 1 .449 1 1s-.448 1-1 1-1-.449-1-1 .448-1 1-1z"/></svg>