<svg height="512pt" viewBox="0 -50 512 512" width="512pt" xmlns="http://www.w3.org/2000/svg"><path d="m225.398438 99.832031c0-49.613281-40.222657-89.832031-89.839844-89.832031-49.617188 0-89.839844 40.21875-89.839844 89.832031s40.222656 89.835938 89.839844 89.835938c49.617187 0 89.839844-40.222657 89.839844-89.835938zm0 0" fill="#ffddcf"/><path d="m313.257812 249.695312 80.761719 55.683594c6.496094 4.476563 15.351563-.171875 15.351563-8.0625v-27.554687h92.628906v-56.253907h-92.628906v-27.558593c0-7.890625-8.855469-12.539063-15.351563-8.0625l-80.761719 55.683593c-5.644531 3.894532-5.644531 12.230469 0 16.125zm0 0" fill="#ff6977"/><path d="m261.117188 342.242188v18.390624c-34.972657 26.261719-78.453126 41.8125-125.558594 41.8125-47.105469 0-90.585938-15.554687-125.558594-41.8125v-139.1875c0-17.550781 14.226562-31.777343 31.78125-31.777343h187.558594c17.554687 0 31.777344 14.226562 31.777344 31.777343v30.871094" fill="#60a4ff"/><path d="m399.574219 317.117188c-3.9375 0-7.851563-1.179688-11.230469-3.507813l-80.761719-55.683594c-5.359375-3.691406-8.558593-9.785156-8.558593-16.292969 0-6.507812 3.199218-12.601562 8.558593-16.292968l80.761719-55.683594c6.074219-4.1875 13.90625-4.660156 20.4375-1.230469 6.535156 3.429688 10.589844 10.144531 10.589844 17.523438v17.558593h82.628906c5.523438 0 10 4.476563 10 10v56.253907c0 5.523437-4.476562 10-10 10h-82.628906v17.554687c0 7.378906-4.054688 14.09375-10.589844 17.523438-2.898438 1.523437-6.058594 2.277344-9.207031 2.277344zm.125-19.972657h.007812zm-80.515625-55.511719 80.1875 55.289063v-27.160156c0-5.523438 4.480468-10 10-10h82.628906v-36.253907h-82.628906c-5.519532 0-10-4.480468-10-10v-27.160156zm0 0"/><path d="m261.117188 262.316406c5.523437 0 10-4.476562 10-10v-30.871094c0-23.035156-18.742188-41.777343-41.777344-41.777343h-33.898438c24.246094-18.230469 39.957032-47.234375 39.957032-79.835938 0-55.046875-44.789063-99.832031-99.839844-99.832031-55.050782 0-99.839844 44.785156-99.839844 99.832031 0 32.601563 15.710938 61.605469 39.957031 79.835938h-33.894531c-23.039062 0-41.78125 18.742187-41.78125 41.777343v139.183594c0 3.148438 1.480469 6.109375 3.996094 8 38.175781 28.664063 83.667968 43.816406 131.5625 43.816406 47.894531 0 93.386718-15.152343 131.5625-43.816406 2.515625-1.890625 3.996094-4.851562 3.996094-8v-18.386718c0-5.523438-4.476563-10-10-10-5.523438 0-10 4.476562-10 10v13.316406c-33.84375 24.148437-73.691407 36.886718-115.558594 36.886718-41.871094 0-81.714844-12.738281-115.558594-36.886718v-134.113282c0-12.007812 9.769531-21.777343 21.777344-21.777343h187.5625c12.007812 0 21.777344 9.769531 21.777344 21.777343v30.871094c0 5.523438 4.476562 10 10 10zm-205.398438-162.484375c0-44.019531 35.816406-79.832031 79.839844-79.832031 44.023437 0 79.839844 35.8125 79.839844 79.832031s-35.816407 79.832031-79.839844 79.832031c-44.023438.003907-79.839844-35.808593-79.839844-79.832031zm0 0"/><path d="m261.121094 307.261719c-4.179688 0-8.007813-2.710938-9.417969-6.632813-1.386719-3.867187-.199219-8.34375 2.949219-10.996094 3.285156-2.765624 8.085937-3.136718 11.746094-.867187 3.492187 2.171875 5.332031 6.414063 4.523437 10.449219-.929687 4.609375-5.085937 8.046875-9.800781 8.046875zm0 0"/></svg>