<svg xmlns="http://www.w3.org/2000/svg" viewBox="0 0 48 48" width="500" height="500"><path fill="#ff9800" d="M14 7H21V9H14zM27 7H34V9H27zM12 12H21V14H12zM27 12H36V14H27zM13 17H21V19H13zM27 17H35V19H27zM16 22H21V24H16zM27 22H32V24H27z"/><g><path fill="#ffc107" d="M24,31.4c-3.4,0-5.6-1.4-6.4-1.4c-2,0-3.6,1.7-3.6,3.8c0,2.1,2.5,3.4,4.1,4.5 c1.5,1.1,3.9,3.8,5.9,3.8c2.1,0,5.3-3,5.9-3.6c1.2-1,4.1-2.6,4.1-4.7c0-2.1-1.6-3.8-3.6-3.8C29.6,30,27.4,31.4,24,31.4z M28.6,32.7 c0.9-0.6,2.1-0.4,2.7,0.5c0.5,0.9,0.2,2.1-0.7,2.7c-0.9,0.6-2.1,0.4-2.7-0.4C27.3,34.6,27.6,33.3,28.6,32.7z M20.2,35.5 c-0.5,0.9-1.7,1.1-2.7,0.4c-0.9-0.6-1.3-1.9-0.7-2.7c0.5-0.9,1.7-1.1,2.7-0.4C20.4,33.3,20.7,34.6,20.2,35.5z"/><path fill="#ffc107" d="M24 26A2 2 0 1 0 24 30 2 2 0 1 0 24 26zM24 21A2 2 0 1 0 24 25 2 2 0 1 0 24 21zM24 16A2 2 0 1 0 24 20 2 2 0 1 0 24 16zM24 11A2 2 0 1 0 24 15 2 2 0 1 0 24 11zM24 6A2 2 0 1 0 24 10 2 2 0 1 0 24 6z"/></g></svg>