<?xml version="1.0" encoding="iso-8859-1"?>
<!-- Generator: Adobe Illustrator 19.0.0, SVG Export Plug-In . SVG Version: 6.00 Build 0)  -->
<svg version="1.1" id="Capa_1" xmlns="http://www.w3.org/2000/svg" xmlns:xlink="http://www.w3.org/1999/xlink" x="0px" y="0px"
	 viewBox="0 0 512 512" style="enable-background:new 0 0 512 512;" xml:space="preserve">
<path style="fill:#F28B74;" d="M386.478,197.917c-6.225,0-12.412-2.612-16.789-7.703c-36.549-42.516-29.192-108.725-26.051-136.997
	c1.349-12.145,12.291-20.892,24.433-19.547c12.145,1.349,20.897,12.288,19.547,24.433c-2.505,22.547-8.372,75.347,15.628,103.265
	c7.966,9.266,6.911,23.236-2.355,31.202C396.715,196.158,391.584,197.917,386.478,197.917z"/>
<path style="opacity:0.1;enable-background:new    ;" d="M386.478,197.917c-6.225,0-12.412-2.612-16.789-7.703
	c-36.549-42.516-29.192-108.725-26.051-136.997c1.349-12.145,12.291-20.892,24.433-19.547c12.145,1.349,20.897,12.288,19.547,24.433
	c-2.505,22.547-8.372,75.347,15.628,103.265c7.966,9.266,6.911,23.236-2.355,31.202
	C396.715,196.158,391.584,197.917,386.478,197.917z"/>
<path style="fill:#F28B74;" d="M64.561,478.466c-5.662,0-11.325-2.16-15.645-6.481C22.208,445.278,7.5,409.768,7.5,371.998v-21.324
	c0-21.916,9.014-43.33,24.733-58.749c15.581-15.287,35.975-23.507,57.509-23.067c21.223,0.405,41.109,8.976,55.995,24.133
	c14.907,15.177,23.116,35.253,23.116,56.528c0,12.219-9.906,22.125-22.125,22.125s-22.125-9.906-22.125-22.125
	c0-19.705-16.018-36.042-35.707-36.419c-9.495-0.191-18.643,3.516-25.673,10.413c-7.29,7.152-11.471,17.052-11.471,27.162v21.324
	c0,25.95,10.105,50.347,28.455,68.697c8.641,8.641,8.641,22.649,0,31.289C75.886,476.306,70.224,478.466,64.561,478.466z"/>
<path style="opacity:0.1;enable-background:new    ;" d="M64.561,478.466c-5.662,0-11.325-2.16-15.645-6.481
	C22.208,445.278,7.5,409.768,7.5,371.998v-21.324c0-21.916,9.014-43.33,24.733-58.749c15.581-15.287,35.975-23.507,57.509-23.067
	c21.223,0.405,41.109,8.976,55.995,24.133c14.907,15.177,23.116,35.253,23.116,56.528c0,12.219-9.906,22.125-22.125,22.125
	s-22.125-9.906-22.125-22.125c0-19.705-16.018-36.042-35.707-36.419c-9.495-0.191-18.643,3.516-25.673,10.413
	c-7.29,7.152-11.471,17.052-11.471,27.162v21.324c0,25.95,10.105,50.347,28.455,68.697c8.641,8.641,8.641,22.649,0,31.289
	C75.886,476.306,70.224,478.466,64.561,478.466z"/>
<path style="fill:#F28B74;" d="M397.851,144.9c-58.9,0-106.649,47.748-106.649,106.648c0,64.527-53.6,92.256-99.632,46.224
	c-20.674-20.674-54.192-20.674-74.866,0s-20.674,54.192,0,74.866c35.356,35.356,86.247,85.094,170.411,85.094
	c102.653,0,217.384-74.273,217.384-206.184C504.5,192.649,456.752,144.9,397.851,144.9z"/>
<g>
	
		<ellipse transform="matrix(-0.3333 -0.9428 0.9428 -0.3333 160.4147 716.9781)" style="fill:#FFFFFF;" cx="333.705" cy="301.772" rx="17.751" ry="22.29"/>
	
		<ellipse transform="matrix(0.3333 0.9428 -0.9428 0.3333 544.9899 -247.6895)" style="fill:#FFFFFF;" cx="447.633" cy="261.51" rx="17.751" ry="22.29"/>
</g>
<ellipse transform="matrix(-0.3333 -0.9428 0.9428 -0.3333 261.3979 722.3849)" style="fill:#495059;" cx="386.108" cy="268.772" rx="20.11" ry="17.971"/>
<path style="opacity:0.05;enable-background:new    ;" d="M293.247,420.847c-118.389,0-152.701-93.723-148.497-137.733
	c-10.272,1.842-20.106,6.72-28.045,14.658c-20.674,20.674-20.674,54.192,0,74.866c35.356,35.356,86.247,85.094,170.411,85.094
	c84.376,0,176.897-50.19,207.173-141.313C463.887,361.745,402.636,420.847,293.247,420.847z"/>
<path style="fill:#F5D7B7;" d="M341.778,422.798c7.512-2.129,13.584-7.966,15.563-15.519c5.57-21.261-20.938-47.643-77.971-49.822
	c-39.68-1.516-61.054,13.053-69.283,28.076c-6.5,11.866-0.946,26.688,11.525,31.935c18.931,7.965,40.543,13.032,65.504,13.032
	C305.522,430.5,323.987,427.841,341.778,422.798z"/>
<path style="fill:#38648C;" d="M221.612,417.468c18.931,7.964,40.543,13.032,65.504,13.032c17.402,0,34.857-2.38,51.746-6.902
	c-3.187-9.176-10.622-16.362-19.967-19.175c-3.222-0.97-5.886-3.17-7.434-6.158c-5.067-9.781-15.28-16.465-27.056-16.465
	c-11.36,0-21.262,6.222-26.496,15.443c-1.876,3.306-5.755,5.038-9.455,4.167c-2.885-0.679-5.928-0.948-9.067-0.738
	c-9.66,0.647-18.132,5.905-23.248,13.557C217.77,415.522,219.599,416.621,221.612,417.468z"/>
<path d="M431.436,226.897c-3.905,1.38-5.952,5.665-4.572,9.571l3.189,9.02c1.088,3.079,3.982,5.002,7.071,5.002
	c0.829,0,1.673-0.139,2.5-0.431c3.905-1.38,5.952-5.666,4.572-9.571l-3.188-9.02C439.627,227.564,435.343,225.516,431.436,226.897z
	 M186.268,303.076c22.68,22.679,49.934,30.538,72.904,21.025c24.383-10.1,39.531-37.9,39.531-72.552
	c0-54.67,44.478-99.148,99.149-99.148c19.589,0,38.529,5.702,54.773,16.489c3.451,2.291,8.105,1.351,10.397-2.099
	c2.291-3.451,1.351-8.105-2.099-10.397c-18.535-12.308-40.112-18.859-62.436-18.981c-9.17-26.61-5.323-61.303-3.414-78.48
	c0.875-7.865-1.367-15.6-6.31-21.779s-11.998-10.063-19.865-10.937c-16.226-1.794-30.91,9.943-32.712,26.173
	c-2.274,20.459-6.867,61.899,4.937,100.133c-34.284,19.716-57.419,56.721-57.419,99.028c0,28.47-11.599,50.96-30.27,58.694
	c-17.43,7.219-38.043,0.74-56.558-17.773c-15.853-15.853-38.391-21.024-58.622-15.546c-14.228-9.858-30.865-15.23-48.358-15.564
	c-23.495-0.469-45.854,8.475-62.913,25.212C9.834,303.392,0,326.756,0,350.674v21.324c0,39.774,15.489,77.167,43.613,105.289
	c5.595,5.596,13.035,8.678,20.949,8.678s15.354-3.082,20.948-8.678c5.596-5.595,8.677-13.035,8.677-20.948
	s-3.081-15.353-8.677-20.948c-16.933-16.933-26.258-39.447-26.258-63.394v-21.324c0-8.109,3.362-16.058,9.223-21.808
	c5.588-5.482,12.807-8.397,20.277-8.269c2.235,0.043,4.424,0.346,6.554,0.896c-4.547,19.657,0.81,41.161,16.097,56.448
	c7.996,7.997,15.913,15.843,24.839,23.908c1.435,1.296,3.233,1.935,5.026,1.935c2.047,0,4.087-0.833,5.567-2.472
	c2.777-3.074,2.537-7.816-0.537-10.593c-8.666-7.83-16.434-15.529-24.289-23.385c-17.716-17.716-17.716-46.543,0-64.26
	C139.725,285.36,168.551,285.36,186.268,303.076z M351.093,54.044c0.89-8.013,8.131-13.805,16.15-12.92
	c3.883,0.431,7.365,2.349,9.806,5.399c2.44,3.05,3.546,6.869,3.115,10.751c-1.944,17.499-5.769,52.002,2.882,81.085
	c-9.872,1.284-19.349,3.839-28.268,7.487C344.752,111.178,348.98,73.055,351.093,54.044z M111.402,292.469
	c-4.497,4.497-8.129,9.534-10.91,14.902c-3.702-1.095-7.528-1.696-11.447-1.77c-11.535-0.246-22.585,4.227-31.077,12.558
	c-8.718,8.553-13.718,20.405-13.718,32.516v21.324c0,27.954,10.886,54.234,30.652,74.001c2.762,2.762,4.284,6.435,4.284,10.341
	s-1.521,7.579-4.284,10.342c-2.762,2.762-6.434,4.284-10.341,4.284s-7.58-1.521-10.342-4.284C28.929,441.391,15,407.766,15,371.999
	v-21.324c0-19.915,8.195-39.377,22.485-53.396c14.156-13.889,32.668-21.307,52.113-20.922c11.273,0.216,22.106,2.956,31.908,7.987
	C117.926,286.641,114.531,289.341,111.402,292.469z M488.481,182.141c-2.52-3.286-7.229-3.907-10.515-1.387
	c-3.287,2.521-3.908,7.229-1.387,10.515C489.938,208.69,497,229.534,497,251.549c0,74.218-36.727,120.811-67.536,146.829
	c-39.025,32.955-90.909,51.855-142.348,51.855c-41.308,0-78.661-12.386-114.192-37.866c-3.366-2.415-8.052-1.642-10.465,1.724
	c-2.414,3.366-1.642,8.052,1.724,10.465c38.169,27.371,78.381,40.676,122.934,40.676c54.926,0,110.337-20.191,152.025-55.395
	c22.509-19.008,40.199-41.602,52.577-67.153C505.176,314.906,512,284.244,512,251.549C512,226.204,503.867,202.204,488.481,182.141z
	 M364.597,409.18c2.467-9.418,0.172-19.531-6.461-28.474c-13.461-18.147-42.065-29.352-78.479-30.743
	c-51.843-1.966-70.521,21.697-76.147,31.967c-4.043,7.381-4.76,16.205-1.967,24.209c2.865,8.21,9.12,14.859,17.162,18.242
	c21.48,9.037,44.497,13.619,68.413,13.619c18.934,0,38.013-2.687,56.708-7.986h-0.001
	C354.027,427.122,361.987,419.139,364.597,409.18z M350.086,405.378c-1.27,4.844-5.236,8.753-10.353,10.204
	c-0.001,0-0.001,0-0.001,0C322.37,420.504,304.666,423,287.116,423c-22.215,0-42.691-4.071-62.596-12.445
	c-4.134-1.739-7.348-5.15-8.816-9.358c-1.416-4.061-1.075-8.344,0.961-12.061c11.856-21.645,43.529-24.264,58.104-24.264
	c1.686,0,3.145,0.035,4.315,0.08c31.376,1.198,56.425,10.428,67.004,24.69C348.826,393.333,351.742,399.059,350.086,405.378z
	 M375.273,293.002c3.854,2.113,7.983,3.183,12.101,3.183c2.682,0,5.36-0.455,7.95-1.37c6.566-2.321,11.701-7.297,14.457-14.012
	c2.635-6.42,2.762-13.704,0.356-20.509c-2.406-6.805-7.082-12.391-13.167-15.729c-6.364-3.491-13.486-4.135-20.051-1.814
	c-13.242,4.681-19.887,20.168-14.813,34.521C364.512,284.078,369.188,289.664,375.273,293.002z M381.918,256.895
	c0.941-0.333,1.924-0.497,2.923-0.497c1.639,0,3.319,0.444,4.915,1.32c2.848,1.562,5.063,4.253,6.238,7.577
	c1.175,3.324,1.143,6.809-0.09,9.814c-1.112,2.71-3.094,4.686-5.579,5.565c-2.486,0.88-5.268,0.587-7.838-0.822
	c-2.848-1.561-5.063-4.253-6.238-7.576C373.931,265.718,376.475,258.819,381.918,256.895z M330.239,288.276
	c0.829,0,1.673-0.139,2.5-0.431c3.905-1.381,5.952-5.666,4.571-9.571l-3.189-9.02c-1.381-3.905-5.665-5.952-9.571-4.571
	c-3.905,1.381-5.952,5.666-4.571,9.571l3.189,9.02C324.256,286.353,327.149,288.276,330.239,288.276z"/>
<g>
</g>
<g>
</g>
<g>
</g>
<g>
</g>
<g>
</g>
<g>
</g>
<g>
</g>
<g>
</g>
<g>
</g>
<g>
</g>
<g>
</g>
<g>
</g>
<g>
</g>
<g>
</g>
<g>
</g>
</svg>
