<?xml version="1.0" encoding="iso-8859-1"?>
<!-- Generator: Adobe Illustrator 19.0.0, SVG Export Plug-In . SVG Version: 6.00 Build 0)  -->
<svg version="1.1" id="Capa_1" xmlns="http://www.w3.org/2000/svg" xmlns:xlink="http://www.w3.org/1999/xlink" x="0px" y="0px"
	 viewBox="0 0 512.001 512.001" style="enable-background:new 0 0 512.001 512.001;" xml:space="preserve">
<path style="fill:#60BBE2;" d="M139.691,92.492l-31.514-31.513l-47.21,47.211l31.513,31.513c0,0,39.903,109.749,51.323,121.169
	l14.301,14.301v0.001l22.253,22.252l180.346,180.344c32.323,32.323,84.73,32.323,117.054,0c32.323-32.323,32.323-84.73,0-117.054
	L297.413,180.37l-22.251-22.253h-0.001l-14.301-14.301C249.44,132.395,139.691,92.492,139.691,92.492z"/>
<path style="fill:#2296D3;" d="M66.988,19.789c-13.037-13.036-34.173-13.036-47.21,0l0,0c-13.036,13.037-13.037,34.173,0,47.21
	l41.189,41.19l47.21-47.211L66.988,19.789z"/>
<path style="fill:#FFDC99;" d="M450.779,333.736L275.161,158.119L158.106,275.173l175.618,175.618L450.779,333.736z"/>
<rect x="296.19" y="293.873" transform="matrix(-0.7071 0.7071 -0.7071 -0.7071 796.628 329.9925)" style="fill:#FF505F;" width="67.56" height="72.22"/>
<rect x="245.127" y="242.803" transform="matrix(-0.7071 0.7071 -0.7071 -0.7071 673.3448 278.9173)" style="fill:#DAE0E6;" width="67.56" height="72.22"/>
<path d="M228.47,169.581c-0.65,0-1.3-0.06-1.95-0.19c-0.64-0.13-1.27-0.32-1.87-0.57c-0.6-0.25-1.18-0.56-1.73-0.921
	c-0.54-0.36-1.06-0.78-1.52-1.24c-0.46-0.46-0.88-0.98-1.239-1.52c-0.36-0.55-0.67-1.13-0.92-1.73s-0.44-1.23-0.57-1.87
	c-0.13-0.65-0.19-1.3-0.19-1.95c0-0.66,0.061-1.31,0.19-1.961c0.13-0.64,0.32-1.27,0.57-1.87c0.25-0.6,0.56-1.18,0.92-1.73
	c0.359-0.54,0.779-1.05,1.239-1.52c0.46-0.46,0.98-0.87,1.52-1.24c0.55-0.36,1.13-0.67,1.73-0.92c0.601-0.25,1.23-0.44,1.87-0.57
	c1.29-0.26,2.62-0.26,3.91,0c0.64,0.13,1.27,0.32,1.87,0.57s1.18,0.56,1.73,0.92c0.539,0.37,1.059,0.78,1.52,1.24
	c0.46,0.47,0.88,0.98,1.24,1.52c0.359,0.55,0.67,1.13,0.92,1.73c0.25,0.6,0.439,1.23,0.57,1.87c0.13,0.65,0.199,1.3,0.199,1.961
	c0,0.65-0.069,1.3-0.199,1.95c-0.131,0.64-0.32,1.27-0.57,1.87c-0.25,0.6-0.561,1.18-0.92,1.73c-0.36,0.54-0.78,1.06-1.24,1.52
	c-0.46,0.46-0.98,0.88-1.52,1.24c-0.551,0.36-1.131,0.671-1.73,0.921c-0.6,0.25-1.23,0.44-1.87,0.57
	C229.78,169.521,229.13,169.581,228.47,169.581z"/>
<path d="M381.191,457.123c-2.63,0-5.21-1.07-7.069-2.93c-0.46-0.46-0.88-0.97-1.25-1.52c-0.36-0.54-0.67-1.12-0.92-1.73
	c-0.25-0.6-0.44-1.23-0.57-1.87c-0.13-0.64-0.19-1.3-0.19-1.95c0-0.65,0.06-1.31,0.19-1.95s0.32-1.27,0.57-1.87
	c0.25-0.61,0.56-1.19,0.92-1.73c0.37-0.55,0.79-1.06,1.25-1.52c0.46-0.46,0.97-0.88,1.52-1.24c0.54-0.36,1.12-0.67,1.72-0.92
	c0.61-0.25,1.24-0.45,1.87-0.57c1.29-0.26,2.62-0.26,3.91,0c0.641,0.12,1.271,0.32,1.87,0.57c0.61,0.25,1.19,0.56,1.73,0.92
	c0.55,0.36,1.06,0.78,1.52,1.24s0.88,0.97,1.24,1.52c0.359,0.539,0.67,1.12,0.92,1.73c0.25,0.6,0.439,1.23,0.57,1.87
	c0.13,0.64,0.199,1.3,0.199,1.95c0,0.65-0.069,1.31-0.199,1.95c-0.131,0.64-0.32,1.27-0.57,1.87c-0.25,0.61-0.561,1.19-0.92,1.73
	c-0.36,0.55-0.78,1.06-1.24,1.52s-0.97,0.88-1.52,1.24c-0.54,0.36-1.12,0.67-1.73,0.92c-0.6,0.25-1.23,0.45-1.87,0.57
	C382.501,457.053,381.841,457.123,381.191,457.123z"/>
<path d="M484.829,353.646l-26.969-26.97c-0.003-0.003-189.927-189.931-189.927-189.931c-2.575-2.575-8.605-8.605-68.265-32.174
	c-24.112-9.526-47.49-18.153-54.467-20.712L74.06,12.718c0,0,0,0-0.001,0c-16.914-16.914-44.438-16.914-61.352,0
	C4.513,20.912,0,31.807,0,43.395c0,11.587,4.512,22.482,12.706,30.676l71.142,71.142c2.558,6.977,11.186,30.355,20.711,54.467
	c23.569,59.659,29.6,65.69,32.174,68.265l216.9,216.897c18.086,18.085,41.842,27.127,65.599,27.127
	c23.756,0,47.513-9.043,65.599-27.128c17.521-17.522,27.171-40.818,27.171-65.599S502.351,371.167,484.829,353.646z
	 M313.552,416.477L172.249,275.173l102.912-102.912l116.166,116.166l45.309,45.31L333.725,436.648L313.552,416.477z M20,43.395
	c0-6.246,2.432-12.118,6.849-16.534c4.559-4.559,10.545-6.837,16.533-6.837c5.987,0,11.977,2.28,16.534,6.837l34.118,34.118
	L60.965,94.047L26.849,59.928C22.432,55.512,20,49.64,20,43.395z M101.879,136.286c-0.5-1.374-1.294-2.621-2.327-3.654L75.11,108.19
	l33.069-33.068l24.442,24.442c1.033,1.033,2.281,1.828,3.654,2.327c52.284,19.011,110.547,42.546,117.515,48.997l7.23,7.231
	L158.105,261.032l-7.2-7.2c-0.324-0.35-0.693-0.834-1.099-1.433l61.238-61.238c3.905-3.905,3.905-10.237,0-14.142
	s-10.237-3.905-14.143-0.001l-56.586,56.585C129.984,210.561,114.874,172.029,101.879,136.286z M470.687,470.698
	c-14.188,14.188-32.818,21.281-51.455,21.28c-18.633-0.002-37.271-7.095-51.455-21.279l-19.908-19.908L450.78,347.88l7.756,7.756
	l-59.913,59.913c-3.905,3.905-3.905,10.237,0,14.143c1.953,1.952,4.512,2.929,7.071,2.929c2.559,0,5.118-0.977,7.071-2.929
	l59.864-59.865C485.134,383.317,492,400.75,492,419.244C492,438.68,484.431,456.954,470.687,470.698z"/>
<path d="M386.471,324.569L335.4,273.498c-0.002-0.002-0.003-0.003-0.005-0.004l-51.065-51.066c-1.876-1.875-4.419-2.929-7.071-2.929
	c-2.652,0-5.196,1.054-7.071,2.929l-47.771,47.771c-3.905,3.905-3.905,10.237,0,14.142l51.066,51.067
	c0.002,0.002,0.003,0.004,0.005,0.005l51.071,51.071c1.953,1.953,4.512,2.929,7.071,2.929c2.56,0,5.118-0.976,7.071-2.929
	l47.771-47.77c1.875-1.875,2.929-4.419,2.929-7.071C389.399,328.988,388.346,326.445,386.471,324.569z M277.257,243.64
	l36.928,36.929l-33.629,33.629l-36.929-36.929L277.257,243.64z M331.629,365.27l-36.929-36.929l33.628-33.628l36.928,36.929
	L331.629,365.27z"/>
<g>
</g>
<g>
</g>
<g>
</g>
<g>
</g>
<g>
</g>
<g>
</g>
<g>
</g>
<g>
</g>
<g>
</g>
<g>
</g>
<g>
</g>
<g>
</g>
<g>
</g>
<g>
</g>
<g>
</g>
</svg>
